<mxfile host="app.diagrams.net" modified="2020-11-11T16:57:54.074Z" agent="5.0 (X11)" etag="1kcCA74WHDdOd8LgrLpS" version="13.9.2" type="github">
  <diagram id="tvbYmN8KFm7Q6v1ftEAk" name="Page-1">
    <mxGraphModel dx="2668" dy="2106" grid="1" gridSize="10" guides="1" tooltips="1" connect="1" arrows="1" fold="1" page="1" pageScale="1" pageWidth="850" pageHeight="1100" math="0" shadow="0">
      <root>
        <mxCell id="0" />
        <mxCell id="1" parent="0" />
        <mxCell id="dL1xS_TsMoXlRhgqfjRp-135" style="edgeStyle=none;rounded=1;orthogonalLoop=1;jettySize=auto;html=1;exitX=1;exitY=0.5;exitDx=0;exitDy=0;entryX=0;entryY=0.5;entryDx=0;entryDy=0;strokeColor=none;fontColor=#1D3557;labelBackgroundColor=#F1FAEE;" parent="1" source="dL1xS_TsMoXlRhgqfjRp-204" target="dL1xS_TsMoXlRhgqfjRp-251" edge="1">
          <mxGeometry relative="1" as="geometry" />
        </mxCell>
        <mxCell id="dL1xS_TsMoXlRhgqfjRp-136" style="edgeStyle=orthogonalEdgeStyle;rounded=1;orthogonalLoop=1;jettySize=auto;html=1;exitX=1;exitY=0.5;exitDx=0;exitDy=0;entryX=0;entryY=0.8;entryDx=0;entryDy=0;entryPerimeter=0;endSize=10;startSize=10;endArrow=ERzeroToMany;endFill=1;startArrow=ERoneToMany;startFill=0;fillColor=#a20025;strokeColor=#6F0000;fontColor=#1D3557;labelBackgroundColor=#F1FAEE;" parent="1" source="dL1xS_TsMoXlRhgqfjRp-201" target="dL1xS_TsMoXlRhgqfjRp-251" edge="1">
          <mxGeometry relative="1" as="geometry" />
        </mxCell>
        <mxCell id="dL1xS_TsMoXlRhgqfjRp-137" style="edgeStyle=orthogonalEdgeStyle;rounded=1;orthogonalLoop=1;jettySize=auto;html=1;exitX=1;exitY=0.5;exitDx=0;exitDy=0;entryX=0;entryY=0.5;entryDx=0;entryDy=0;startArrow=ERmandOne;startFill=0;startSize=10;endArrow=ERzeroToMany;endFill=1;endSize=10;fontColor=#1D3557;fillColor=#a20025;strokeColor=#6F0000;labelBackgroundColor=#F1FAEE;" parent="1" source="dL1xS_TsMoXlRhgqfjRp-148" target="dL1xS_TsMoXlRhgqfjRp-204" edge="1">
          <mxGeometry relative="1" as="geometry" />
        </mxCell>
        <mxCell id="dL1xS_TsMoXlRhgqfjRp-138" style="edgeStyle=elbowEdgeStyle;rounded=1;orthogonalLoop=1;jettySize=auto;html=1;exitX=0.5;exitY=1;exitDx=0;exitDy=0;entryX=0.25;entryY=0;entryDx=0;entryDy=0;startArrow=ERmandOne;startFill=0;startSize=10;endArrow=ERzeroToMany;endFill=1;endSize=10;fontColor=#1D3557;elbow=vertical;fillColor=#a20025;strokeColor=#6F0000;labelBackgroundColor=#F1FAEE;" parent="1" source="dL1xS_TsMoXlRhgqfjRp-141" target="dL1xS_TsMoXlRhgqfjRp-177" edge="1">
          <mxGeometry relative="1" as="geometry">
            <Array as="points">
              <mxPoint x="-120" y="550" />
            </Array>
          </mxGeometry>
        </mxCell>
        <mxCell id="dL1xS_TsMoXlRhgqfjRp-140" style="edgeStyle=orthogonalEdgeStyle;rounded=1;orthogonalLoop=1;jettySize=auto;html=1;exitX=0.5;exitY=0;exitDx=0;exitDy=0;entryX=0.46;entryY=1.033;entryDx=0;entryDy=0;entryPerimeter=0;startArrow=ERmandOne;startFill=0;startSize=10;endArrow=ERmany;endFill=0;endSize=10;fontColor=#1D3557;fillColor=#a20025;strokeColor=#6F0000;labelBackgroundColor=#F1FAEE;" parent="1" source="dL1xS_TsMoXlRhgqfjRp-141" target="dL1xS_TsMoXlRhgqfjRp-174" edge="1">
          <mxGeometry relative="1" as="geometry" />
        </mxCell>
        <mxCell id="dL1xS_TsMoXlRhgqfjRp-141" value="User" style="shape=table;startSize=30;container=1;collapsible=1;childLayout=tableLayout;fixedRows=1;rowLines=0;fontStyle=1;align=center;resizeLast=1;rounded=1;arcSize=20;fillColor=#A8DADC;strokeColor=#457B9D;fontColor=#1D3557;" parent="1" vertex="1">
          <mxGeometry x="-210" y="110" width="250" height="390" as="geometry" />
        </mxCell>
        <mxCell id="dL1xS_TsMoXlRhgqfjRp-142" value="" style="shape=partialRectangle;collapsible=0;dropTarget=0;pointerEvents=0;fillColor=none;top=0;left=0;bottom=1;right=0;points=[[0,0.5],[1,0.5]];portConstraint=eastwest;strokeColor=#457B9D;fontColor=#1D3557;" parent="dL1xS_TsMoXlRhgqfjRp-141" vertex="1">
          <mxGeometry y="30" width="250" height="30" as="geometry" />
        </mxCell>
        <mxCell id="dL1xS_TsMoXlRhgqfjRp-143" value="PK" style="shape=partialRectangle;connectable=0;fillColor=none;top=0;left=0;bottom=0;right=0;fontStyle=1;overflow=hidden;strokeColor=#457B9D;fontColor=#1D3557;" parent="dL1xS_TsMoXlRhgqfjRp-142" vertex="1">
          <mxGeometry width="30" height="30" as="geometry" />
        </mxCell>
        <mxCell id="dL1xS_TsMoXlRhgqfjRp-144" value="user_id   int" style="shape=partialRectangle;connectable=0;fillColor=none;top=0;left=0;bottom=0;right=0;align=left;spacingLeft=6;fontStyle=5;overflow=hidden;strokeColor=#457B9D;fontColor=#1D3557;" parent="dL1xS_TsMoXlRhgqfjRp-142" vertex="1">
          <mxGeometry x="30" width="220" height="30" as="geometry" />
        </mxCell>
        <mxCell id="dL1xS_TsMoXlRhgqfjRp-145" value="" style="shape=partialRectangle;collapsible=0;dropTarget=0;pointerEvents=0;fillColor=none;top=0;left=0;bottom=0;right=0;points=[[0,0.5],[1,0.5]];portConstraint=eastwest;strokeColor=#457B9D;fontColor=#1D3557;" parent="dL1xS_TsMoXlRhgqfjRp-141" vertex="1">
          <mxGeometry y="60" width="250" height="30" as="geometry" />
        </mxCell>
        <mxCell id="dL1xS_TsMoXlRhgqfjRp-146" value="" style="shape=partialRectangle;connectable=0;fillColor=none;top=0;left=0;bottom=0;right=0;editable=1;overflow=hidden;strokeColor=#457B9D;fontColor=#1D3557;" parent="dL1xS_TsMoXlRhgqfjRp-145" vertex="1">
          <mxGeometry width="30" height="30" as="geometry" />
        </mxCell>
        <mxCell id="dL1xS_TsMoXlRhgqfjRp-147" value="email    VARCHAR" style="shape=partialRectangle;connectable=0;fillColor=none;top=0;left=0;bottom=0;right=0;align=left;spacingLeft=6;overflow=hidden;fontStyle=1;strokeColor=#457B9D;fontColor=#1D3557;" parent="dL1xS_TsMoXlRhgqfjRp-145" vertex="1">
          <mxGeometry x="30" width="220" height="30" as="geometry" />
        </mxCell>
        <mxCell id="dL1xS_TsMoXlRhgqfjRp-148" value="" style="shape=partialRectangle;collapsible=0;dropTarget=0;pointerEvents=0;fillColor=none;top=0;left=0;bottom=0;right=0;points=[[0,0.5],[1,0.5]];portConstraint=eastwest;strokeColor=#457B9D;fontColor=#1D3557;" parent="dL1xS_TsMoXlRhgqfjRp-141" vertex="1">
          <mxGeometry y="90" width="250" height="30" as="geometry" />
        </mxCell>
        <mxCell id="dL1xS_TsMoXlRhgqfjRp-149" value="&#xa;" style="shape=partialRectangle;connectable=0;fillColor=none;top=0;left=0;bottom=0;right=0;editable=1;overflow=hidden;strokeColor=#457B9D;fontColor=#1D3557;" parent="dL1xS_TsMoXlRhgqfjRp-148" vertex="1">
          <mxGeometry width="30" height="30" as="geometry" />
        </mxCell>
        <mxCell id="dL1xS_TsMoXlRhgqfjRp-150" value="password   VARCHAR" style="shape=partialRectangle;connectable=0;fillColor=none;top=0;left=0;bottom=0;right=0;align=left;spacingLeft=6;overflow=hidden;fontStyle=1;strokeColor=#457B9D;fontColor=#1D3557;" parent="dL1xS_TsMoXlRhgqfjRp-148" vertex="1">
          <mxGeometry x="30" width="220" height="30" as="geometry" />
        </mxCell>
        <mxCell id="dL1xS_TsMoXlRhgqfjRp-344" value="" style="shape=partialRectangle;collapsible=0;dropTarget=0;pointerEvents=0;fillColor=none;top=0;left=0;bottom=0;right=0;points=[[0,0.5],[1,0.5]];portConstraint=eastwest;strokeColor=#457B9D;fontColor=#1D3557;" parent="dL1xS_TsMoXlRhgqfjRp-141" vertex="1">
          <mxGeometry y="120" width="250" height="30" as="geometry" />
        </mxCell>
        <mxCell id="dL1xS_TsMoXlRhgqfjRp-345" value="&#xa;" style="shape=partialRectangle;connectable=0;fillColor=none;top=0;left=0;bottom=0;right=0;editable=1;overflow=hidden;strokeColor=#457B9D;fontColor=#1D3557;" parent="dL1xS_TsMoXlRhgqfjRp-344" vertex="1">
          <mxGeometry width="30" height="30" as="geometry" />
        </mxCell>
        <mxCell id="dL1xS_TsMoXlRhgqfjRp-346" value="first_name   VARCHAR" style="shape=partialRectangle;connectable=0;fillColor=none;top=0;left=0;bottom=0;right=0;align=left;spacingLeft=6;overflow=hidden;fontStyle=1;strokeColor=#457B9D;fontColor=#1D3557;" parent="dL1xS_TsMoXlRhgqfjRp-344" vertex="1">
          <mxGeometry x="30" width="220" height="30" as="geometry" />
        </mxCell>
        <mxCell id="dL1xS_TsMoXlRhgqfjRp-375" value="" style="shape=partialRectangle;collapsible=0;dropTarget=0;pointerEvents=0;fillColor=none;top=0;left=0;bottom=0;right=0;points=[[0,0.5],[1,0.5]];portConstraint=eastwest;strokeColor=#457B9D;fontColor=#1D3557;" parent="dL1xS_TsMoXlRhgqfjRp-141" vertex="1">
          <mxGeometry y="150" width="250" height="30" as="geometry" />
        </mxCell>
        <mxCell id="dL1xS_TsMoXlRhgqfjRp-376" value="&#xa;" style="shape=partialRectangle;connectable=0;fillColor=none;top=0;left=0;bottom=0;right=0;editable=1;overflow=hidden;strokeColor=#457B9D;fontColor=#1D3557;" parent="dL1xS_TsMoXlRhgqfjRp-375" vertex="1">
          <mxGeometry width="30" height="30" as="geometry" />
        </mxCell>
        <mxCell id="dL1xS_TsMoXlRhgqfjRp-377" value="last_name   VARCHAR" style="shape=partialRectangle;connectable=0;fillColor=none;top=0;left=0;bottom=0;right=0;align=left;spacingLeft=6;overflow=hidden;fontStyle=1;strokeColor=#457B9D;fontColor=#1D3557;" parent="dL1xS_TsMoXlRhgqfjRp-375" vertex="1">
          <mxGeometry x="30" width="220" height="30" as="geometry" />
        </mxCell>
        <mxCell id="dL1xS_TsMoXlRhgqfjRp-151" value="" style="shape=partialRectangle;collapsible=0;dropTarget=0;pointerEvents=0;fillColor=none;top=0;left=0;bottom=0;right=0;points=[[0,0.5],[1,0.5]];portConstraint=eastwest;strokeColor=#457B9D;fontColor=#1D3557;" parent="dL1xS_TsMoXlRhgqfjRp-141" vertex="1">
          <mxGeometry y="180" width="250" height="40" as="geometry" />
        </mxCell>
        <mxCell id="dL1xS_TsMoXlRhgqfjRp-152" value="" style="shape=partialRectangle;connectable=0;fillColor=none;top=0;left=0;bottom=0;right=0;editable=1;overflow=hidden;strokeColor=#457B9D;fontColor=#1D3557;" parent="dL1xS_TsMoXlRhgqfjRp-151" vertex="1">
          <mxGeometry width="30" height="40" as="geometry" />
        </mxCell>
        <mxCell id="dL1xS_TsMoXlRhgqfjRp-153" value="user_name   VARCHAR" style="shape=partialRectangle;connectable=0;fillColor=none;top=0;left=0;bottom=0;right=0;align=left;spacingLeft=6;overflow=hidden;fontStyle=1;strokeColor=#457B9D;fontColor=#1D3557;" parent="dL1xS_TsMoXlRhgqfjRp-151" vertex="1">
          <mxGeometry x="30" width="220" height="40" as="geometry" />
        </mxCell>
        <mxCell id="dL1xS_TsMoXlRhgqfjRp-154" style="shape=partialRectangle;collapsible=0;dropTarget=0;pointerEvents=0;fillColor=none;top=0;left=0;bottom=0;right=0;points=[[0,0.5],[1,0.5]];portConstraint=eastwest;strokeColor=#457B9D;fontColor=#1D3557;" parent="dL1xS_TsMoXlRhgqfjRp-141" vertex="1">
          <mxGeometry y="220" width="250" height="30" as="geometry" />
        </mxCell>
        <mxCell id="dL1xS_TsMoXlRhgqfjRp-155" value="FK" style="shape=partialRectangle;connectable=0;fillColor=none;top=0;left=0;bottom=0;right=0;editable=1;overflow=hidden;fontStyle=0;strokeColor=#457B9D;fontColor=#1D3557;" parent="dL1xS_TsMoXlRhgqfjRp-154" vertex="1">
          <mxGeometry width="30" height="30" as="geometry" />
        </mxCell>
        <mxCell id="dL1xS_TsMoXlRhgqfjRp-156" value="question_id" style="shape=partialRectangle;connectable=0;fillColor=none;top=0;left=0;bottom=0;right=0;align=left;spacingLeft=6;overflow=hidden;strokeColor=#457B9D;fontColor=#1D3557;fontStyle=1" parent="dL1xS_TsMoXlRhgqfjRp-154" vertex="1">
          <mxGeometry x="30" width="220" height="30" as="geometry" />
        </mxCell>
        <mxCell id="dL1xS_TsMoXlRhgqfjRp-157" style="shape=partialRectangle;collapsible=0;dropTarget=0;pointerEvents=0;fillColor=none;top=0;left=0;bottom=0;right=0;points=[[0,0.5],[1,0.5]];portConstraint=eastwest;strokeColor=#457B9D;fontColor=#1D3557;" parent="dL1xS_TsMoXlRhgqfjRp-141" vertex="1">
          <mxGeometry y="250" width="250" height="30" as="geometry" />
        </mxCell>
        <mxCell id="dL1xS_TsMoXlRhgqfjRp-158" style="shape=partialRectangle;connectable=0;fillColor=none;top=0;left=0;bottom=0;right=0;editable=1;overflow=hidden;strokeColor=#457B9D;fontColor=#1D3557;" parent="dL1xS_TsMoXlRhgqfjRp-157" vertex="1">
          <mxGeometry width="30" height="30" as="geometry" />
        </mxCell>
        <mxCell id="dL1xS_TsMoXlRhgqfjRp-159" value="sign_up_date   DATE" style="shape=partialRectangle;connectable=0;fillColor=none;top=0;left=0;bottom=0;right=0;align=left;spacingLeft=6;overflow=hidden;fontStyle=1;strokeColor=#457B9D;fontColor=#1D3557;" parent="dL1xS_TsMoXlRhgqfjRp-157" vertex="1">
          <mxGeometry x="30" width="220" height="30" as="geometry" />
        </mxCell>
        <mxCell id="dL1xS_TsMoXlRhgqfjRp-378" style="shape=partialRectangle;collapsible=0;dropTarget=0;pointerEvents=0;fillColor=none;top=0;left=0;bottom=0;right=0;points=[[0,0.5],[1,0.5]];portConstraint=eastwest;strokeColor=#457B9D;fontColor=#1D3557;" parent="dL1xS_TsMoXlRhgqfjRp-141" vertex="1">
          <mxGeometry y="280" width="250" height="30" as="geometry" />
        </mxCell>
        <mxCell id="dL1xS_TsMoXlRhgqfjRp-379" style="shape=partialRectangle;connectable=0;fillColor=none;top=0;left=0;bottom=0;right=0;editable=1;overflow=hidden;strokeColor=#457B9D;fontColor=#1D3557;" parent="dL1xS_TsMoXlRhgqfjRp-378" vertex="1">
          <mxGeometry width="30" height="30" as="geometry" />
        </mxCell>
        <mxCell id="dL1xS_TsMoXlRhgqfjRp-380" value="sign_up_time    TIME" style="shape=partialRectangle;connectable=0;fillColor=none;top=0;left=0;bottom=0;right=0;align=left;spacingLeft=6;overflow=hidden;fontStyle=1;strokeColor=#457B9D;fontColor=#1D3557;" parent="dL1xS_TsMoXlRhgqfjRp-378" vertex="1">
          <mxGeometry x="30" width="220" height="30" as="geometry" />
        </mxCell>
        <mxCell id="dL1xS_TsMoXlRhgqfjRp-160" style="shape=partialRectangle;collapsible=0;dropTarget=0;pointerEvents=0;fillColor=none;top=0;left=0;bottom=0;right=0;points=[[0,0.5],[1,0.5]];portConstraint=eastwest;strokeColor=#457B9D;fontColor=#1D3557;" parent="dL1xS_TsMoXlRhgqfjRp-141" vertex="1">
          <mxGeometry y="310" width="250" height="30" as="geometry" />
        </mxCell>
        <mxCell id="dL1xS_TsMoXlRhgqfjRp-161" value="FK" style="shape=partialRectangle;connectable=0;fillColor=none;top=0;left=0;bottom=0;right=0;editable=1;overflow=hidden;strokeColor=#457B9D;fontColor=#1D3557;" parent="dL1xS_TsMoXlRhgqfjRp-160" vertex="1">
          <mxGeometry width="30" height="30" as="geometry" />
        </mxCell>
        <mxCell id="dL1xS_TsMoXlRhgqfjRp-162" value="answer_id" style="shape=partialRectangle;connectable=0;fillColor=none;top=0;left=0;bottom=0;right=0;align=left;spacingLeft=6;overflow=hidden;strokeColor=#457B9D;fontColor=#1D3557;fontStyle=1" parent="dL1xS_TsMoXlRhgqfjRp-160" vertex="1">
          <mxGeometry x="30" width="220" height="30" as="geometry" />
        </mxCell>
        <mxCell id="dL1xS_TsMoXlRhgqfjRp-163" style="shape=partialRectangle;collapsible=0;dropTarget=0;pointerEvents=0;fillColor=none;top=0;left=0;bottom=0;right=0;points=[[0,0.5],[1,0.5]];portConstraint=eastwest;strokeColor=#457B9D;fontColor=#1D3557;" parent="dL1xS_TsMoXlRhgqfjRp-141" vertex="1">
          <mxGeometry y="340" width="250" height="30" as="geometry" />
        </mxCell>
        <mxCell id="dL1xS_TsMoXlRhgqfjRp-164" value="" style="shape=partialRectangle;connectable=0;fillColor=none;top=0;left=0;bottom=0;right=0;editable=1;overflow=hidden;fontStyle=1;strokeColor=#457B9D;fontColor=#1D3557;" parent="dL1xS_TsMoXlRhgqfjRp-163" vertex="1">
          <mxGeometry width="30" height="30" as="geometry" />
        </mxCell>
        <mxCell id="dL1xS_TsMoXlRhgqfjRp-165" value="interest   VARCHAR" style="shape=partialRectangle;connectable=0;fillColor=none;top=0;left=0;bottom=0;right=0;align=left;spacingLeft=6;overflow=hidden;fontStyle=1;strokeColor=#457B9D;fontColor=#1D3557;" parent="dL1xS_TsMoXlRhgqfjRp-163" vertex="1">
          <mxGeometry x="30" width="220" height="30" as="geometry" />
        </mxCell>
        <mxCell id="dL1xS_TsMoXlRhgqfjRp-166" style="rounded=1;orthogonalLoop=1;jettySize=auto;html=1;entryX=0;entryY=0.5;entryDx=0;entryDy=0;startArrow=ERmandOne;startFill=0;startSize=10;endArrow=ERzeroToMany;endFill=1;endSize=10;fontColor=#1D3557;elbow=vertical;edgeStyle=entityRelationEdgeStyle;fillColor=#a20025;strokeColor=#6F0000;labelBackgroundColor=#F1FAEE;exitX=0.992;exitY=-0.1;exitDx=0;exitDy=0;exitPerimeter=0;" parent="1" source="dL1xS_TsMoXlRhgqfjRp-142" target="dL1xS_TsMoXlRhgqfjRp-248" edge="1">
          <mxGeometry relative="1" as="geometry">
            <mxPoint x="50" y="150" as="sourcePoint" />
          </mxGeometry>
        </mxCell>
        <mxCell id="dL1xS_TsMoXlRhgqfjRp-167" style="edgeStyle=elbowEdgeStyle;rounded=1;orthogonalLoop=1;jettySize=auto;html=1;exitX=1;exitY=0.5;exitDx=0;exitDy=0;startArrow=ERzeroToMany;startFill=1;startSize=10;endArrow=ERmandOne;endFill=0;endSize=10;fontColor=#1D3557;entryX=0;entryY=0;entryDx=0;entryDy=0;entryPerimeter=0;fillColor=#a20025;strokeColor=#6F0000;labelBackgroundColor=#F1FAEE;" parent="1" source="dL1xS_TsMoXlRhgqfjRp-178" target="dL1xS_TsMoXlRhgqfjRp-210" edge="1">
          <mxGeometry relative="1" as="geometry">
            <mxPoint x="110" y="440" as="targetPoint" />
          </mxGeometry>
        </mxCell>
        <mxCell id="dL1xS_TsMoXlRhgqfjRp-168" style="edgeStyle=orthogonalEdgeStyle;rounded=1;orthogonalLoop=1;jettySize=auto;html=1;exitX=1;exitY=0.5;exitDx=0;exitDy=0;startArrow=ERzeroToMany;startFill=1;startSize=10;endArrow=ERmandOne;endFill=0;endSize=10;fontColor=#1D3557;fillColor=#a20025;strokeColor=#6F0000;labelBackgroundColor=#F1FAEE;entryX=0.37;entryY=-0.007;entryDx=0;entryDy=0;entryPerimeter=0;" parent="1" source="dL1xS_TsMoXlRhgqfjRp-224" target="dL1xS_TsMoXlRhgqfjRp-247" edge="1">
          <mxGeometry relative="1" as="geometry">
            <mxPoint x="480" y="90" as="targetPoint" />
          </mxGeometry>
        </mxCell>
        <mxCell id="dL1xS_TsMoXlRhgqfjRp-169" style="edgeStyle=orthogonalEdgeStyle;rounded=1;orthogonalLoop=1;jettySize=auto;html=1;exitX=0.5;exitY=0;exitDx=0;exitDy=0;entryX=0;entryY=0.5;entryDx=0;entryDy=0;startArrow=ERmany;startFill=0;startSize=10;endArrow=ERmandOne;endFill=0;endSize=10;fontColor=#1D3557;fillColor=#a20025;strokeColor=#6F0000;labelBackgroundColor=#F1FAEE;" parent="1" source="dL1xS_TsMoXlRhgqfjRp-170" target="dL1xS_TsMoXlRhgqfjRp-241" edge="1">
          <mxGeometry relative="1" as="geometry" />
        </mxCell>
        <mxCell id="dL1xS_TsMoXlRhgqfjRp-170" value="Spaces" style="shape=table;startSize=30;container=1;collapsible=1;childLayout=tableLayout;fixedRows=1;rowLines=0;fontStyle=1;align=center;resizeLast=1;rounded=1;fontColor=#1D3557;fillColor=#A8DADC;strokeColor=#457B9D;" parent="1" vertex="1">
          <mxGeometry x="-230" y="-50" width="200" height="100" as="geometry" />
        </mxCell>
        <mxCell id="dL1xS_TsMoXlRhgqfjRp-171" value="" style="shape=partialRectangle;collapsible=0;dropTarget=0;pointerEvents=0;fillColor=none;top=0;left=0;bottom=1;right=0;points=[[0,0.5],[1,0.5]];portConstraint=eastwest;strokeColor=#457B9D;fontColor=#1D3557;" parent="dL1xS_TsMoXlRhgqfjRp-170" vertex="1">
          <mxGeometry y="30" width="200" height="30" as="geometry" />
        </mxCell>
        <mxCell id="dL1xS_TsMoXlRhgqfjRp-172" value="PK" style="shape=partialRectangle;connectable=0;fillColor=none;top=0;left=0;bottom=0;right=0;fontStyle=1;overflow=hidden;strokeColor=#457B9D;fontColor=#1D3557;" parent="dL1xS_TsMoXlRhgqfjRp-171" vertex="1">
          <mxGeometry width="30" height="30" as="geometry" />
        </mxCell>
        <mxCell id="dL1xS_TsMoXlRhgqfjRp-173" value="interest_id   " style="shape=partialRectangle;connectable=0;fillColor=none;top=0;left=0;bottom=0;right=0;align=left;spacingLeft=6;fontStyle=5;overflow=hidden;strokeColor=#457B9D;fontColor=#1D3557;" parent="dL1xS_TsMoXlRhgqfjRp-171" vertex="1">
          <mxGeometry x="30" width="170" height="30" as="geometry" />
        </mxCell>
        <mxCell id="dL1xS_TsMoXlRhgqfjRp-174" style="shape=partialRectangle;collapsible=0;dropTarget=0;pointerEvents=0;fillColor=none;top=0;left=0;bottom=1;right=0;points=[[0,0.5],[1,0.5]];portConstraint=eastwest;strokeColor=#457B9D;fontColor=#1D3557;" parent="dL1xS_TsMoXlRhgqfjRp-170" vertex="1">
          <mxGeometry y="60" width="200" height="30" as="geometry" />
        </mxCell>
        <mxCell id="dL1xS_TsMoXlRhgqfjRp-175" value="PK" style="shape=partialRectangle;connectable=0;fillColor=none;top=0;left=0;bottom=0;right=0;fontStyle=1;overflow=hidden;strokeColor=#457B9D;fontColor=#1D3557;" parent="dL1xS_TsMoXlRhgqfjRp-174" vertex="1">
          <mxGeometry width="30" height="30" as="geometry" />
        </mxCell>
        <mxCell id="dL1xS_TsMoXlRhgqfjRp-176" value="user_id" style="shape=partialRectangle;connectable=0;fillColor=none;top=0;left=0;bottom=0;right=0;align=left;spacingLeft=6;fontStyle=5;overflow=hidden;strokeColor=#457B9D;fontColor=#1D3557;" parent="dL1xS_TsMoXlRhgqfjRp-174" vertex="1">
          <mxGeometry x="30" width="170" height="30" as="geometry" />
        </mxCell>
        <mxCell id="dL1xS_TsMoXlRhgqfjRp-177" value="Comment" style="shape=table;startSize=30;container=1;collapsible=1;childLayout=tableLayout;fixedRows=1;rowLines=0;fontStyle=1;align=center;resizeLast=1;rounded=1;fontColor=#1D3557;fillColor=#A8DADC;strokeColor=#457B9D;" parent="1" vertex="1">
          <mxGeometry x="-200" y="580" width="200" height="220" as="geometry" />
        </mxCell>
        <mxCell id="dL1xS_TsMoXlRhgqfjRp-178" value="" style="shape=partialRectangle;collapsible=0;dropTarget=0;pointerEvents=0;fillColor=none;top=0;left=0;bottom=1;right=0;points=[[0,0.5],[1,0.5]];portConstraint=eastwest;strokeColor=#457B9D;fontColor=#1D3557;" parent="dL1xS_TsMoXlRhgqfjRp-177" vertex="1">
          <mxGeometry y="30" width="200" height="30" as="geometry" />
        </mxCell>
        <mxCell id="dL1xS_TsMoXlRhgqfjRp-179" value="PK" style="shape=partialRectangle;connectable=0;fillColor=none;top=0;left=0;bottom=0;right=0;fontStyle=1;overflow=hidden;strokeColor=#457B9D;fontColor=#1D3557;" parent="dL1xS_TsMoXlRhgqfjRp-178" vertex="1">
          <mxGeometry width="30" height="30" as="geometry" />
        </mxCell>
        <mxCell id="dL1xS_TsMoXlRhgqfjRp-180" value="comment_id" style="shape=partialRectangle;connectable=0;fillColor=none;top=0;left=0;bottom=0;right=0;align=left;spacingLeft=6;fontStyle=5;overflow=hidden;strokeColor=#457B9D;fontColor=#1D3557;" parent="dL1xS_TsMoXlRhgqfjRp-178" vertex="1">
          <mxGeometry x="30" width="170" height="30" as="geometry" />
        </mxCell>
        <mxCell id="dL1xS_TsMoXlRhgqfjRp-181" value="" style="shape=partialRectangle;collapsible=0;dropTarget=0;pointerEvents=0;fillColor=none;top=0;left=0;bottom=0;right=0;points=[[0,0.5],[1,0.5]];portConstraint=eastwest;strokeColor=#457B9D;fontColor=#1D3557;" parent="dL1xS_TsMoXlRhgqfjRp-177" vertex="1">
          <mxGeometry y="60" width="200" height="30" as="geometry" />
        </mxCell>
        <mxCell id="dL1xS_TsMoXlRhgqfjRp-182" value="FK" style="shape=partialRectangle;connectable=0;fillColor=none;top=0;left=0;bottom=0;right=0;editable=1;overflow=hidden;fontStyle=1;strokeColor=#457B9D;fontColor=#1D3557;" parent="dL1xS_TsMoXlRhgqfjRp-181" vertex="1">
          <mxGeometry width="30" height="30" as="geometry" />
        </mxCell>
        <mxCell id="dL1xS_TsMoXlRhgqfjRp-183" value="user_id" style="shape=partialRectangle;connectable=0;fillColor=none;top=0;left=0;bottom=0;right=0;align=left;spacingLeft=6;overflow=hidden;fontStyle=1;strokeColor=#457B9D;fontColor=#1D3557;" parent="dL1xS_TsMoXlRhgqfjRp-181" vertex="1">
          <mxGeometry x="30" width="170" height="30" as="geometry" />
        </mxCell>
        <mxCell id="dL1xS_TsMoXlRhgqfjRp-184" value="" style="shape=partialRectangle;collapsible=0;dropTarget=0;pointerEvents=0;fillColor=none;top=0;left=0;bottom=0;right=0;points=[[0,0.5],[1,0.5]];portConstraint=eastwest;strokeColor=#457B9D;fontColor=#1D3557;" parent="dL1xS_TsMoXlRhgqfjRp-177" vertex="1">
          <mxGeometry y="90" width="200" height="30" as="geometry" />
        </mxCell>
        <mxCell id="dL1xS_TsMoXlRhgqfjRp-185" value="FK" style="shape=partialRectangle;connectable=0;fillColor=none;top=0;left=0;bottom=0;right=0;editable=1;overflow=hidden;fontStyle=1;strokeColor=#457B9D;fontColor=#1D3557;" parent="dL1xS_TsMoXlRhgqfjRp-184" vertex="1">
          <mxGeometry width="30" height="30" as="geometry" />
        </mxCell>
        <mxCell id="dL1xS_TsMoXlRhgqfjRp-186" value="answer_id" style="shape=partialRectangle;connectable=0;fillColor=none;top=0;left=0;bottom=0;right=0;align=left;spacingLeft=6;overflow=hidden;fontStyle=1;strokeColor=#457B9D;fontColor=#1D3557;" parent="dL1xS_TsMoXlRhgqfjRp-184" vertex="1">
          <mxGeometry x="30" width="170" height="30" as="geometry" />
        </mxCell>
        <mxCell id="dL1xS_TsMoXlRhgqfjRp-341" value="" style="shape=partialRectangle;collapsible=0;dropTarget=0;pointerEvents=0;fillColor=none;top=0;left=0;bottom=0;right=0;points=[[0,0.5],[1,0.5]];portConstraint=eastwest;strokeColor=#457B9D;fontColor=#1D3557;" parent="dL1xS_TsMoXlRhgqfjRp-177" vertex="1">
          <mxGeometry y="120" width="200" height="30" as="geometry" />
        </mxCell>
        <mxCell id="dL1xS_TsMoXlRhgqfjRp-342" value="" style="shape=partialRectangle;connectable=0;fillColor=none;top=0;left=0;bottom=0;right=0;editable=1;overflow=hidden;strokeColor=#457B9D;fontColor=#1D3557;" parent="dL1xS_TsMoXlRhgqfjRp-341" vertex="1">
          <mxGeometry width="30" height="30" as="geometry" />
        </mxCell>
        <mxCell id="dL1xS_TsMoXlRhgqfjRp-343" value="text_body   VARCHAR" style="shape=partialRectangle;connectable=0;fillColor=none;top=0;left=0;bottom=0;right=0;align=left;spacingLeft=6;overflow=hidden;fontStyle=1;strokeColor=#457B9D;fontColor=#1D3557;" parent="dL1xS_TsMoXlRhgqfjRp-341" vertex="1">
          <mxGeometry x="30" width="170" height="30" as="geometry" />
        </mxCell>
        <mxCell id="dL1xS_TsMoXlRhgqfjRp-187" value="" style="shape=partialRectangle;collapsible=0;dropTarget=0;pointerEvents=0;fillColor=none;top=0;left=0;bottom=0;right=0;points=[[0,0.5],[1,0.5]];portConstraint=eastwest;strokeColor=#457B9D;fontColor=#1D3557;" parent="dL1xS_TsMoXlRhgqfjRp-177" vertex="1">
          <mxGeometry y="150" width="200" height="30" as="geometry" />
        </mxCell>
        <mxCell id="dL1xS_TsMoXlRhgqfjRp-188" value="" style="shape=partialRectangle;connectable=0;fillColor=none;top=0;left=0;bottom=0;right=0;editable=1;overflow=hidden;strokeColor=#457B9D;fontColor=#1D3557;" parent="dL1xS_TsMoXlRhgqfjRp-187" vertex="1">
          <mxGeometry width="30" height="30" as="geometry" />
        </mxCell>
        <mxCell id="dL1xS_TsMoXlRhgqfjRp-189" value="date  DATE" style="shape=partialRectangle;connectable=0;fillColor=none;top=0;left=0;bottom=0;right=0;align=left;spacingLeft=6;overflow=hidden;fontStyle=1;strokeColor=#457B9D;fontColor=#1D3557;" parent="dL1xS_TsMoXlRhgqfjRp-187" vertex="1">
          <mxGeometry x="30" width="170" height="30" as="geometry" />
        </mxCell>
        <mxCell id="dL1xS_TsMoXlRhgqfjRp-338" value="" style="shape=partialRectangle;collapsible=0;dropTarget=0;pointerEvents=0;fillColor=none;top=0;left=0;bottom=0;right=0;points=[[0,0.5],[1,0.5]];portConstraint=eastwest;strokeColor=#457B9D;fontColor=#1D3557;" parent="dL1xS_TsMoXlRhgqfjRp-177" vertex="1">
          <mxGeometry y="180" width="200" height="30" as="geometry" />
        </mxCell>
        <mxCell id="dL1xS_TsMoXlRhgqfjRp-339" value="" style="shape=partialRectangle;connectable=0;fillColor=none;top=0;left=0;bottom=0;right=0;editable=1;overflow=hidden;strokeColor=#457B9D;fontColor=#1D3557;" parent="dL1xS_TsMoXlRhgqfjRp-338" vertex="1">
          <mxGeometry width="30" height="30" as="geometry" />
        </mxCell>
        <mxCell id="dL1xS_TsMoXlRhgqfjRp-340" value="time   TIME" style="shape=partialRectangle;connectable=0;fillColor=none;top=0;left=0;bottom=0;right=0;align=left;spacingLeft=6;overflow=hidden;fontStyle=1;strokeColor=#457B9D;fontColor=#1D3557;" parent="dL1xS_TsMoXlRhgqfjRp-338" vertex="1">
          <mxGeometry x="30" width="170" height="30" as="geometry" />
        </mxCell>
        <mxCell id="dL1xS_TsMoXlRhgqfjRp-190" style="rounded=1;sketch=0;orthogonalLoop=1;jettySize=auto;html=1;exitX=0.414;exitY=-0.013;exitDx=0;exitDy=0;entryX=0.75;entryY=1;entryDx=0;entryDy=0;startArrow=ERmandOne;startFill=0;endArrow=ERmany;endFill=0;strokeColor=#6F0000;fillColor=#a20025;fontColor=#1D3557;endSize=10;startSize=10;exitPerimeter=0;" parent="1" source="dL1xS_TsMoXlRhgqfjRp-191" target="dL1xS_TsMoXlRhgqfjRp-230" edge="1">
          <mxGeometry relative="1" as="geometry" />
        </mxCell>
        <mxCell id="dL1xS_TsMoXlRhgqfjRp-191" value="Question" style="shape=table;startSize=30;container=1;collapsible=1;childLayout=tableLayout;fixedRows=1;rowLines=0;fontStyle=1;align=center;resizeLast=1;rounded=1;fillColor=#A8DADC;strokeColor=#457B9D;fontColor=#1D3557;" parent="1" vertex="1">
          <mxGeometry x="110" y="170" width="210" height="300" as="geometry" />
        </mxCell>
        <mxCell id="dL1xS_TsMoXlRhgqfjRp-192" value="" style="shape=partialRectangle;collapsible=0;dropTarget=0;pointerEvents=0;fillColor=none;points=[[0,0.5],[1,0.5]];portConstraint=eastwest;top=0;left=0;right=0;bottom=1;strokeColor=#457B9D;fontColor=#1D3557;" parent="dL1xS_TsMoXlRhgqfjRp-191" vertex="1">
          <mxGeometry y="30" width="210" height="30" as="geometry" />
        </mxCell>
        <mxCell id="dL1xS_TsMoXlRhgqfjRp-193" value="PK" style="shape=partialRectangle;overflow=hidden;connectable=0;fillColor=none;top=0;left=0;bottom=0;right=0;fontStyle=1;strokeColor=#457B9D;fontColor=#1D3557;" parent="dL1xS_TsMoXlRhgqfjRp-192" vertex="1">
          <mxGeometry width="30" height="30" as="geometry" />
        </mxCell>
        <mxCell id="dL1xS_TsMoXlRhgqfjRp-194" value="question_id  int" style="shape=partialRectangle;overflow=hidden;connectable=0;fillColor=none;top=0;left=0;bottom=0;right=0;align=left;spacingLeft=6;fontStyle=5;strokeColor=#457B9D;fontColor=#1D3557;" parent="dL1xS_TsMoXlRhgqfjRp-192" vertex="1">
          <mxGeometry x="30" width="180" height="30" as="geometry" />
        </mxCell>
        <mxCell id="dL1xS_TsMoXlRhgqfjRp-195" value="" style="shape=partialRectangle;collapsible=0;dropTarget=0;pointerEvents=0;fillColor=none;points=[[0,0.5],[1,0.5]];portConstraint=eastwest;top=0;left=0;right=0;bottom=0;fontStyle=0;strokeColor=#457B9D;fontColor=#1D3557;" parent="dL1xS_TsMoXlRhgqfjRp-191" vertex="1">
          <mxGeometry y="60" width="210" height="30" as="geometry" />
        </mxCell>
        <mxCell id="dL1xS_TsMoXlRhgqfjRp-196" value="FK" style="shape=partialRectangle;overflow=hidden;connectable=0;fillColor=none;top=0;left=0;bottom=0;right=0;fontStyle=1;strokeColor=#457B9D;fontColor=#1D3557;" parent="dL1xS_TsMoXlRhgqfjRp-195" vertex="1">
          <mxGeometry width="30" height="30" as="geometry" />
        </mxCell>
        <mxCell id="dL1xS_TsMoXlRhgqfjRp-197" value="user_id" style="shape=partialRectangle;overflow=hidden;connectable=0;fillColor=none;top=0;left=0;bottom=0;right=0;align=left;spacingLeft=6;fontStyle=1;strokeColor=#457B9D;fontColor=#1D3557;" parent="dL1xS_TsMoXlRhgqfjRp-195" vertex="1">
          <mxGeometry x="30" width="180" height="30" as="geometry" />
        </mxCell>
        <mxCell id="dL1xS_TsMoXlRhgqfjRp-198" style="shape=partialRectangle;collapsible=0;dropTarget=0;pointerEvents=0;fillColor=none;points=[[0,0.5],[1,0.5]];portConstraint=eastwest;top=0;left=0;right=0;bottom=0;fontStyle=0;strokeColor=#457B9D;fontColor=#1D3557;" parent="dL1xS_TsMoXlRhgqfjRp-191" vertex="1">
          <mxGeometry y="90" width="210" height="30" as="geometry" />
        </mxCell>
        <mxCell id="dL1xS_TsMoXlRhgqfjRp-199" style="shape=partialRectangle;overflow=hidden;connectable=0;fillColor=none;top=0;left=0;bottom=0;right=0;fontStyle=1;strokeColor=#457B9D;fontColor=#1D3557;" parent="dL1xS_TsMoXlRhgqfjRp-198" vertex="1">
          <mxGeometry width="30" height="30" as="geometry" />
        </mxCell>
        <mxCell id="dL1xS_TsMoXlRhgqfjRp-200" value="text_field   VARCHAR" style="shape=partialRectangle;overflow=hidden;connectable=0;fillColor=none;top=0;left=0;bottom=0;right=0;align=left;spacingLeft=6;fontStyle=1;strokeColor=#457B9D;fontColor=#1D3557;" parent="dL1xS_TsMoXlRhgqfjRp-198" vertex="1">
          <mxGeometry x="30" width="180" height="30" as="geometry" />
        </mxCell>
        <mxCell id="dL1xS_TsMoXlRhgqfjRp-201" style="shape=partialRectangle;collapsible=0;dropTarget=0;pointerEvents=0;fillColor=none;points=[[0,0.5],[1,0.5]];portConstraint=eastwest;top=0;left=0;right=0;bottom=0;fontStyle=0;strokeColor=#457B9D;fontColor=#1D3557;" parent="dL1xS_TsMoXlRhgqfjRp-191" vertex="1">
          <mxGeometry y="120" width="210" height="30" as="geometry" />
        </mxCell>
        <mxCell id="dL1xS_TsMoXlRhgqfjRp-202" style="shape=partialRectangle;overflow=hidden;connectable=0;fillColor=none;top=0;left=0;bottom=0;right=0;fontStyle=1;strokeColor=#457B9D;fontColor=#1D3557;" parent="dL1xS_TsMoXlRhgqfjRp-201" vertex="1">
          <mxGeometry width="30" height="30" as="geometry" />
        </mxCell>
        <mxCell id="dL1xS_TsMoXlRhgqfjRp-203" value="picture   VARCHAR" style="shape=partialRectangle;overflow=hidden;connectable=0;fillColor=none;top=0;left=0;bottom=0;right=0;align=left;spacingLeft=6;fontStyle=1;strokeColor=#457B9D;fontColor=#1D3557;" parent="dL1xS_TsMoXlRhgqfjRp-201" vertex="1">
          <mxGeometry x="30" width="180" height="30" as="geometry" />
        </mxCell>
        <mxCell id="dL1xS_TsMoXlRhgqfjRp-204" style="shape=partialRectangle;collapsible=0;dropTarget=0;pointerEvents=0;fillColor=none;points=[[0,0.5],[1,0.5]];portConstraint=eastwest;top=0;left=0;right=0;bottom=0;fontStyle=0;strokeColor=#457B9D;fontColor=#1D3557;" parent="dL1xS_TsMoXlRhgqfjRp-191" vertex="1">
          <mxGeometry y="150" width="210" height="30" as="geometry" />
        </mxCell>
        <mxCell id="dL1xS_TsMoXlRhgqfjRp-205" value="FK" style="shape=partialRectangle;overflow=hidden;connectable=0;fillColor=none;top=0;left=0;bottom=0;right=0;fontStyle=1;strokeColor=#457B9D;fontColor=#1D3557;" parent="dL1xS_TsMoXlRhgqfjRp-204" vertex="1">
          <mxGeometry width="30" height="30" as="geometry" />
        </mxCell>
        <mxCell id="dL1xS_TsMoXlRhgqfjRp-206" value="interest_id" style="shape=partialRectangle;overflow=hidden;connectable=0;fillColor=none;top=0;left=0;bottom=0;right=0;align=left;spacingLeft=6;fontStyle=1;strokeColor=#457B9D;fontColor=#1D3557;" parent="dL1xS_TsMoXlRhgqfjRp-204" vertex="1">
          <mxGeometry x="30" width="180" height="30" as="geometry" />
        </mxCell>
        <mxCell id="dL1xS_TsMoXlRhgqfjRp-207" style="shape=partialRectangle;collapsible=0;dropTarget=0;pointerEvents=0;fillColor=none;points=[[0,0.5],[1,0.5]];portConstraint=eastwest;top=0;left=0;right=0;bottom=0;fontStyle=0;strokeColor=#457B9D;fontColor=#1D3557;" parent="dL1xS_TsMoXlRhgqfjRp-191" vertex="1">
          <mxGeometry y="180" width="210" height="30" as="geometry" />
        </mxCell>
        <mxCell id="dL1xS_TsMoXlRhgqfjRp-208" style="shape=partialRectangle;overflow=hidden;connectable=0;fillColor=none;top=0;left=0;bottom=0;right=0;fontStyle=1;strokeColor=#457B9D;fontColor=#1D3557;" parent="dL1xS_TsMoXlRhgqfjRp-207" vertex="1">
          <mxGeometry width="30" height="30" as="geometry" />
        </mxCell>
        <mxCell id="dL1xS_TsMoXlRhgqfjRp-209" value="asked_date  DATE" style="shape=partialRectangle;overflow=hidden;connectable=0;fillColor=none;top=0;left=0;bottom=0;right=0;align=left;spacingLeft=6;fontStyle=1;strokeColor=#457B9D;fontColor=#1D3557;" parent="dL1xS_TsMoXlRhgqfjRp-207" vertex="1">
          <mxGeometry x="30" width="180" height="30" as="geometry" />
        </mxCell>
        <mxCell id="dL1xS_TsMoXlRhgqfjRp-303" style="shape=partialRectangle;collapsible=0;dropTarget=0;pointerEvents=0;fillColor=none;points=[[0,0.5],[1,0.5]];portConstraint=eastwest;top=0;left=0;right=0;bottom=0;fontStyle=0;strokeColor=#457B9D;fontColor=#1D3557;" parent="dL1xS_TsMoXlRhgqfjRp-191" vertex="1">
          <mxGeometry y="210" width="210" height="30" as="geometry" />
        </mxCell>
        <mxCell id="dL1xS_TsMoXlRhgqfjRp-304" style="shape=partialRectangle;overflow=hidden;connectable=0;fillColor=none;top=0;left=0;bottom=0;right=0;fontStyle=1;strokeColor=#457B9D;fontColor=#1D3557;" parent="dL1xS_TsMoXlRhgqfjRp-303" vertex="1">
          <mxGeometry width="30" height="30" as="geometry" />
        </mxCell>
        <mxCell id="dL1xS_TsMoXlRhgqfjRp-305" value="asked_time   TIME" style="shape=partialRectangle;overflow=hidden;connectable=0;fillColor=none;top=0;left=0;bottom=0;right=0;align=left;spacingLeft=6;fontStyle=1;strokeColor=#457B9D;fontColor=#1D3557;" parent="dL1xS_TsMoXlRhgqfjRp-303" vertex="1">
          <mxGeometry x="30" width="180" height="30" as="geometry" />
        </mxCell>
        <mxCell id="dL1xS_TsMoXlRhgqfjRp-210" style="shape=partialRectangle;collapsible=0;dropTarget=0;pointerEvents=0;fillColor=none;points=[[0,0.5],[1,0.5]];portConstraint=eastwest;top=0;left=0;right=0;bottom=0;fontStyle=0;strokeColor=#457B9D;fontColor=#1D3557;" parent="dL1xS_TsMoXlRhgqfjRp-191" vertex="1">
          <mxGeometry y="240" width="210" height="30" as="geometry" />
        </mxCell>
        <mxCell id="dL1xS_TsMoXlRhgqfjRp-211" style="shape=partialRectangle;overflow=hidden;connectable=0;fillColor=none;top=0;left=0;bottom=0;right=0;fontStyle=1;strokeColor=#457B9D;fontColor=#1D3557;" parent="dL1xS_TsMoXlRhgqfjRp-210" vertex="1">
          <mxGeometry width="30" height="30" as="geometry" />
        </mxCell>
        <mxCell id="dL1xS_TsMoXlRhgqfjRp-212" value="edit_date  DATETIME" style="shape=partialRectangle;overflow=hidden;connectable=0;fillColor=none;top=0;left=0;bottom=0;right=0;align=left;spacingLeft=6;fontStyle=1;strokeColor=#457B9D;fontColor=#1D3557;" parent="dL1xS_TsMoXlRhgqfjRp-210" vertex="1">
          <mxGeometry x="30" width="180" height="30" as="geometry" />
        </mxCell>
        <mxCell id="dL1xS_TsMoXlRhgqfjRp-213" style="shape=partialRectangle;collapsible=0;dropTarget=0;pointerEvents=0;fillColor=none;points=[[0,0.5],[1,0.5]];portConstraint=eastwest;top=0;left=0;right=0;bottom=0;fontStyle=0;strokeColor=#457B9D;fontColor=#1D3557;" parent="dL1xS_TsMoXlRhgqfjRp-191" vertex="1">
          <mxGeometry y="270" width="210" height="30" as="geometry" />
        </mxCell>
        <mxCell id="dL1xS_TsMoXlRhgqfjRp-214" style="shape=partialRectangle;overflow=hidden;connectable=0;fillColor=none;top=0;left=0;bottom=0;right=0;fontStyle=1;strokeColor=#457B9D;fontColor=#1D3557;" parent="dL1xS_TsMoXlRhgqfjRp-213" vertex="1">
          <mxGeometry width="30" height="30" as="geometry" />
        </mxCell>
        <mxCell id="dL1xS_TsMoXlRhgqfjRp-215" value="likes_number    int" style="shape=partialRectangle;overflow=hidden;connectable=0;fillColor=none;top=0;left=0;bottom=0;right=0;align=left;spacingLeft=6;fontStyle=1;strokeColor=#457B9D;fontColor=#1D3557;" parent="dL1xS_TsMoXlRhgqfjRp-213" vertex="1">
          <mxGeometry x="30" width="180" height="30" as="geometry" />
        </mxCell>
        <mxCell id="dL1xS_TsMoXlRhgqfjRp-216" style="edgeStyle=none;rounded=1;sketch=0;orthogonalLoop=1;jettySize=auto;html=1;exitX=0.75;exitY=1;exitDx=0;exitDy=0;startArrow=ERmandOne;startFill=0;startSize=10;endArrow=ERmany;endFill=0;endSize=10;strokeColor=#6F0000;fillColor=#a20025;fontColor=#1D3557;" parent="1" source="dL1xS_TsMoXlRhgqfjRp-237" edge="1">
          <mxGeometry relative="1" as="geometry">
            <mxPoint x="114" y="-19" as="targetPoint" />
          </mxGeometry>
        </mxCell>
        <mxCell id="dL1xS_TsMoXlRhgqfjRp-217" value="Likes" style="shape=table;startSize=30;container=1;collapsible=1;childLayout=tableLayout;fixedRows=1;rowLines=0;fontStyle=1;align=center;resizeLast=1;rounded=1;fontColor=#1D3557;fillColor=#A8DADC;strokeColor=#457B9D;" parent="1" vertex="1">
          <mxGeometry x="260" y="-140" width="180" height="160" as="geometry" />
        </mxCell>
        <mxCell id="dL1xS_TsMoXlRhgqfjRp-218" value="" style="shape=partialRectangle;collapsible=0;dropTarget=0;pointerEvents=0;fillColor=none;top=0;left=0;bottom=1;right=0;points=[[0,0.5],[1,0.5]];portConstraint=eastwest;strokeColor=#457B9D;fontColor=#1D3557;" parent="dL1xS_TsMoXlRhgqfjRp-217" vertex="1">
          <mxGeometry y="30" width="180" height="30" as="geometry" />
        </mxCell>
        <mxCell id="dL1xS_TsMoXlRhgqfjRp-219" value="PK" style="shape=partialRectangle;connectable=0;fillColor=none;top=0;left=0;bottom=0;right=0;fontStyle=1;overflow=hidden;strokeColor=#457B9D;fontColor=#1D3557;" parent="dL1xS_TsMoXlRhgqfjRp-218" vertex="1">
          <mxGeometry width="30" height="30" as="geometry" />
        </mxCell>
        <mxCell id="dL1xS_TsMoXlRhgqfjRp-220" value="likes_id  int" style="shape=partialRectangle;connectable=0;fillColor=none;top=0;left=0;bottom=0;right=0;align=left;spacingLeft=6;fontStyle=5;overflow=hidden;strokeColor=#457B9D;fontColor=#1D3557;" parent="dL1xS_TsMoXlRhgqfjRp-218" vertex="1">
          <mxGeometry x="30" width="150" height="30" as="geometry" />
        </mxCell>
        <mxCell id="dL1xS_TsMoXlRhgqfjRp-221" value="" style="shape=partialRectangle;collapsible=0;dropTarget=0;pointerEvents=0;fillColor=none;top=0;left=0;bottom=0;right=0;points=[[0,0.5],[1,0.5]];portConstraint=eastwest;strokeColor=#457B9D;fontColor=#1D3557;" parent="dL1xS_TsMoXlRhgqfjRp-217" vertex="1">
          <mxGeometry y="60" width="180" height="30" as="geometry" />
        </mxCell>
        <mxCell id="dL1xS_TsMoXlRhgqfjRp-222" value="FK" style="shape=partialRectangle;connectable=0;fillColor=none;top=0;left=0;bottom=0;right=0;editable=1;overflow=hidden;fontStyle=1;strokeColor=#457B9D;fontColor=#1D3557;" parent="dL1xS_TsMoXlRhgqfjRp-221" vertex="1">
          <mxGeometry width="30" height="30" as="geometry" />
        </mxCell>
        <mxCell id="dL1xS_TsMoXlRhgqfjRp-223" value="user_id" style="shape=partialRectangle;connectable=0;fillColor=none;top=0;left=0;bottom=0;right=0;align=left;spacingLeft=6;overflow=hidden;fontStyle=1;strokeColor=#457B9D;fontColor=#1D3557;" parent="dL1xS_TsMoXlRhgqfjRp-221" vertex="1">
          <mxGeometry x="30" width="150" height="30" as="geometry" />
        </mxCell>
        <mxCell id="dL1xS_TsMoXlRhgqfjRp-224" value="" style="shape=partialRectangle;collapsible=0;dropTarget=0;pointerEvents=0;fillColor=none;top=0;left=0;bottom=0;right=0;points=[[0,0.5],[1,0.5]];portConstraint=eastwest;strokeColor=#457B9D;fontColor=#1D3557;" parent="dL1xS_TsMoXlRhgqfjRp-217" vertex="1">
          <mxGeometry y="90" width="180" height="30" as="geometry" />
        </mxCell>
        <mxCell id="dL1xS_TsMoXlRhgqfjRp-225" value="" style="shape=partialRectangle;connectable=0;fillColor=none;top=0;left=0;bottom=0;right=0;editable=1;overflow=hidden;strokeColor=#457B9D;fontColor=#1D3557;" parent="dL1xS_TsMoXlRhgqfjRp-224" vertex="1">
          <mxGeometry width="30" height="30" as="geometry" />
        </mxCell>
        <mxCell id="dL1xS_TsMoXlRhgqfjRp-226" value="vote   BOOLEAN" style="shape=partialRectangle;connectable=0;fillColor=none;top=0;left=0;bottom=0;right=0;align=left;spacingLeft=6;overflow=hidden;fontStyle=1;strokeColor=#457B9D;fontColor=#1D3557;" parent="dL1xS_TsMoXlRhgqfjRp-224" vertex="1">
          <mxGeometry x="30" width="150" height="30" as="geometry" />
        </mxCell>
        <mxCell id="dL1xS_TsMoXlRhgqfjRp-227" value="" style="shape=partialRectangle;collapsible=0;dropTarget=0;pointerEvents=0;fillColor=none;top=0;left=0;bottom=0;right=0;points=[[0,0.5],[1,0.5]];portConstraint=eastwest;strokeColor=#457B9D;fontColor=#1D3557;" parent="dL1xS_TsMoXlRhgqfjRp-217" vertex="1">
          <mxGeometry y="120" width="180" height="30" as="geometry" />
        </mxCell>
        <mxCell id="dL1xS_TsMoXlRhgqfjRp-228" value="FK" style="shape=partialRectangle;connectable=0;fillColor=none;top=0;left=0;bottom=0;right=0;editable=1;overflow=hidden;fontStyle=1;strokeColor=#457B9D;fontColor=#1D3557;" parent="dL1xS_TsMoXlRhgqfjRp-227" vertex="1">
          <mxGeometry width="30" height="30" as="geometry" />
        </mxCell>
        <mxCell id="dL1xS_TsMoXlRhgqfjRp-229" value="answer_id" style="shape=partialRectangle;connectable=0;fillColor=none;top=0;left=0;bottom=0;right=0;align=left;spacingLeft=6;overflow=hidden;fontStyle=1;strokeColor=#457B9D;fontColor=#1D3557;" parent="dL1xS_TsMoXlRhgqfjRp-227" vertex="1">
          <mxGeometry x="30" width="150" height="30" as="geometry" />
        </mxCell>
        <mxCell id="dL1xS_TsMoXlRhgqfjRp-230" value="Question_tag" style="shape=table;startSize=30;container=1;collapsible=1;childLayout=tableLayout;fixedRows=1;rowLines=0;fontStyle=1;align=center;resizeLast=1;rounded=1;sketch=0;strokeColor=#457B9D;fillColor=#A8DADC;fontColor=#1D3557;" parent="1" vertex="1">
          <mxGeometry x="60" y="-20" width="180" height="100" as="geometry" />
        </mxCell>
        <mxCell id="dL1xS_TsMoXlRhgqfjRp-231" value="" style="shape=partialRectangle;collapsible=0;dropTarget=0;pointerEvents=0;fillColor=none;top=0;left=0;bottom=1;right=0;points=[[0,0.5],[1,0.5]];portConstraint=eastwest;" parent="dL1xS_TsMoXlRhgqfjRp-230" vertex="1">
          <mxGeometry y="30" width="180" height="30" as="geometry" />
        </mxCell>
        <mxCell id="dL1xS_TsMoXlRhgqfjRp-232" value="PK" style="shape=partialRectangle;connectable=0;fillColor=none;top=0;left=0;bottom=0;right=0;fontStyle=1;overflow=hidden;" parent="dL1xS_TsMoXlRhgqfjRp-231" vertex="1">
          <mxGeometry width="30" height="30" as="geometry" />
        </mxCell>
        <mxCell id="dL1xS_TsMoXlRhgqfjRp-233" value="interest_id" style="shape=partialRectangle;connectable=0;fillColor=none;top=0;left=0;bottom=0;right=0;align=left;spacingLeft=6;fontStyle=5;overflow=hidden;" parent="dL1xS_TsMoXlRhgqfjRp-231" vertex="1">
          <mxGeometry x="30" width="150" height="30" as="geometry" />
        </mxCell>
        <mxCell id="dL1xS_TsMoXlRhgqfjRp-234" style="shape=partialRectangle;collapsible=0;dropTarget=0;pointerEvents=0;fillColor=none;top=0;left=0;bottom=1;right=0;points=[[0,0.5],[1,0.5]];portConstraint=eastwest;" parent="dL1xS_TsMoXlRhgqfjRp-230" vertex="1">
          <mxGeometry y="60" width="180" height="30" as="geometry" />
        </mxCell>
        <mxCell id="dL1xS_TsMoXlRhgqfjRp-235" value="PK" style="shape=partialRectangle;connectable=0;fillColor=none;top=0;left=0;bottom=0;right=0;fontStyle=1;overflow=hidden;" parent="dL1xS_TsMoXlRhgqfjRp-234" vertex="1">
          <mxGeometry width="30" height="30" as="geometry" />
        </mxCell>
        <mxCell id="dL1xS_TsMoXlRhgqfjRp-236" value="question_id" style="shape=partialRectangle;connectable=0;fillColor=none;top=0;left=0;bottom=0;right=0;align=left;spacingLeft=6;fontStyle=5;overflow=hidden;" parent="dL1xS_TsMoXlRhgqfjRp-234" vertex="1">
          <mxGeometry x="30" width="150" height="30" as="geometry" />
        </mxCell>
        <mxCell id="dL1xS_TsMoXlRhgqfjRp-237" value="interest" style="shape=table;startSize=30;container=1;collapsible=1;childLayout=tableLayout;fixedRows=1;rowLines=0;fontStyle=1;align=center;resizeLast=1;rounded=1;fontColor=#1D3557;fillColor=#A8DADC;strokeColor=#457B9D;" parent="1" vertex="1">
          <mxGeometry x="-20" y="-220" width="180" height="130" as="geometry" />
        </mxCell>
        <mxCell id="dL1xS_TsMoXlRhgqfjRp-238" value="" style="shape=partialRectangle;collapsible=0;dropTarget=0;pointerEvents=0;fillColor=none;top=0;left=0;bottom=1;right=0;points=[[0,0.5],[1,0.5]];portConstraint=eastwest;strokeColor=#457B9D;fontColor=#1D3557;" parent="dL1xS_TsMoXlRhgqfjRp-237" vertex="1">
          <mxGeometry y="30" width="180" height="30" as="geometry" />
        </mxCell>
        <mxCell id="dL1xS_TsMoXlRhgqfjRp-239" value="PK" style="shape=partialRectangle;connectable=0;fillColor=none;top=0;left=0;bottom=0;right=0;fontStyle=1;overflow=hidden;strokeColor=#457B9D;fontColor=#1D3557;" parent="dL1xS_TsMoXlRhgqfjRp-238" vertex="1">
          <mxGeometry width="30" height="30" as="geometry" />
        </mxCell>
        <mxCell id="dL1xS_TsMoXlRhgqfjRp-240" value="interest_id   int" style="shape=partialRectangle;connectable=0;fillColor=none;top=0;left=0;bottom=0;right=0;align=left;spacingLeft=6;fontStyle=5;overflow=hidden;strokeColor=#457B9D;fontColor=#1D3557;" parent="dL1xS_TsMoXlRhgqfjRp-238" vertex="1">
          <mxGeometry x="30" width="150" height="30" as="geometry" />
        </mxCell>
        <mxCell id="dL1xS_TsMoXlRhgqfjRp-241" value="" style="shape=partialRectangle;collapsible=0;dropTarget=0;pointerEvents=0;fillColor=none;top=0;left=0;bottom=0;right=0;points=[[0,0.5],[1,0.5]];portConstraint=eastwest;strokeColor=#457B9D;fontColor=#1D3557;" parent="dL1xS_TsMoXlRhgqfjRp-237" vertex="1">
          <mxGeometry y="60" width="180" height="30" as="geometry" />
        </mxCell>
        <mxCell id="dL1xS_TsMoXlRhgqfjRp-242" value="" style="shape=partialRectangle;connectable=0;fillColor=none;top=0;left=0;bottom=0;right=0;editable=1;overflow=hidden;strokeColor=#457B9D;fontColor=#1D3557;" parent="dL1xS_TsMoXlRhgqfjRp-241" vertex="1">
          <mxGeometry width="30" height="30" as="geometry" />
        </mxCell>
        <mxCell id="dL1xS_TsMoXlRhgqfjRp-243" value="title    VARCHAR" style="shape=partialRectangle;connectable=0;fillColor=none;top=0;left=0;bottom=0;right=0;align=left;spacingLeft=6;overflow=hidden;strokeColor=#457B9D;fontColor=#1D3557;fontStyle=1" parent="dL1xS_TsMoXlRhgqfjRp-241" vertex="1">
          <mxGeometry x="30" width="150" height="30" as="geometry" />
        </mxCell>
        <mxCell id="dL1xS_TsMoXlRhgqfjRp-244" value="" style="shape=partialRectangle;collapsible=0;dropTarget=0;pointerEvents=0;fillColor=none;top=0;left=0;bottom=0;right=0;points=[[0,0.5],[1,0.5]];portConstraint=eastwest;strokeColor=#457B9D;fontColor=#1D3557;fontStyle=1" parent="dL1xS_TsMoXlRhgqfjRp-237" vertex="1">
          <mxGeometry y="90" width="180" height="30" as="geometry" />
        </mxCell>
        <mxCell id="dL1xS_TsMoXlRhgqfjRp-245" value="" style="shape=partialRectangle;connectable=0;fillColor=none;top=0;left=0;bottom=0;right=0;editable=1;overflow=hidden;strokeColor=#457B9D;fontColor=#1D3557;" parent="dL1xS_TsMoXlRhgqfjRp-244" vertex="1">
          <mxGeometry width="30" height="30" as="geometry" />
        </mxCell>
        <mxCell id="dL1xS_TsMoXlRhgqfjRp-246" value="icon   VARCHAR" style="shape=partialRectangle;connectable=0;fillColor=none;top=0;left=0;bottom=0;right=0;align=left;spacingLeft=6;overflow=hidden;strokeColor=#457B9D;fontColor=#1D3557;fontStyle=1" parent="dL1xS_TsMoXlRhgqfjRp-244" vertex="1">
          <mxGeometry x="30" width="150" height="30" as="geometry" />
        </mxCell>
        <mxCell id="dL1xS_TsMoXlRhgqfjRp-247" value="Answers" style="shape=table;startSize=30;container=1;collapsible=1;childLayout=tableLayout;fixedRows=1;rowLines=0;fontStyle=1;align=center;resizeLast=1;swimlaneFillColor=none;rounded=1;fillColor=#A8DADC;strokeColor=#457B9D;fontColor=#1D3557;" parent="1" vertex="1">
          <mxGeometry x="390" y="90" width="265" height="310" as="geometry" />
        </mxCell>
        <mxCell id="dL1xS_TsMoXlRhgqfjRp-248" value="" style="shape=partialRectangle;collapsible=0;dropTarget=0;pointerEvents=0;fillColor=none;points=[[0,0.5],[1,0.5]];portConstraint=eastwest;top=0;left=0;right=0;bottom=1;strokeColor=#457B9D;fontColor=#1D3557;" parent="dL1xS_TsMoXlRhgqfjRp-247" vertex="1">
          <mxGeometry y="30" width="265" height="30" as="geometry" />
        </mxCell>
        <mxCell id="dL1xS_TsMoXlRhgqfjRp-249" value="PK" style="shape=partialRectangle;overflow=hidden;connectable=0;fillColor=none;top=0;left=0;bottom=0;right=0;fontStyle=1;strokeColor=#457B9D;fontColor=#1D3557;" parent="dL1xS_TsMoXlRhgqfjRp-248" vertex="1">
          <mxGeometry width="30" height="30" as="geometry" />
        </mxCell>
        <mxCell id="dL1xS_TsMoXlRhgqfjRp-250" value="answer_id   int" style="shape=partialRectangle;overflow=hidden;connectable=0;fillColor=none;top=0;left=0;bottom=0;right=0;align=left;spacingLeft=6;fontStyle=5;strokeColor=#457B9D;fontColor=#1D3557;" parent="dL1xS_TsMoXlRhgqfjRp-248" vertex="1">
          <mxGeometry x="30" width="235" height="30" as="geometry" />
        </mxCell>
        <mxCell id="dL1xS_TsMoXlRhgqfjRp-251" value="" style="shape=partialRectangle;collapsible=0;dropTarget=0;pointerEvents=0;fillColor=none;points=[[0,0.5],[1,0.5]];portConstraint=eastwest;top=0;left=0;right=0;bottom=0;strokeColor=#457B9D;fontColor=#1D3557;" parent="dL1xS_TsMoXlRhgqfjRp-247" vertex="1">
          <mxGeometry y="60" width="265" height="30" as="geometry" />
        </mxCell>
        <mxCell id="dL1xS_TsMoXlRhgqfjRp-252" value="FK" style="shape=partialRectangle;overflow=hidden;connectable=0;fillColor=none;top=0;left=0;bottom=0;right=0;fontStyle=1;strokeColor=#457B9D;fontColor=#1D3557;" parent="dL1xS_TsMoXlRhgqfjRp-251" vertex="1">
          <mxGeometry width="30" height="30" as="geometry" />
        </mxCell>
        <mxCell id="dL1xS_TsMoXlRhgqfjRp-253" value="user_id" style="shape=partialRectangle;overflow=hidden;connectable=0;fillColor=none;top=0;left=0;bottom=0;right=0;align=left;spacingLeft=6;fontStyle=1;strokeColor=#457B9D;fontColor=#1D3557;" parent="dL1xS_TsMoXlRhgqfjRp-251" vertex="1">
          <mxGeometry x="30" width="235" height="30" as="geometry" />
        </mxCell>
        <mxCell id="dL1xS_TsMoXlRhgqfjRp-254" value="" style="shape=partialRectangle;collapsible=0;dropTarget=0;pointerEvents=0;fillColor=none;points=[[0,0.5],[1,0.5]];portConstraint=eastwest;top=0;left=0;right=0;bottom=0;strokeColor=#457B9D;fontColor=#1D3557;" parent="dL1xS_TsMoXlRhgqfjRp-247" vertex="1">
          <mxGeometry y="90" width="265" height="30" as="geometry" />
        </mxCell>
        <mxCell id="dL1xS_TsMoXlRhgqfjRp-255" value="FK" style="shape=partialRectangle;overflow=hidden;connectable=0;fillColor=none;top=0;left=0;bottom=0;right=0;fontStyle=1;strokeColor=#457B9D;fontColor=#1D3557;" parent="dL1xS_TsMoXlRhgqfjRp-254" vertex="1">
          <mxGeometry width="30" height="30" as="geometry" />
        </mxCell>
        <mxCell id="dL1xS_TsMoXlRhgqfjRp-256" value="question_id" style="shape=partialRectangle;overflow=hidden;connectable=0;fillColor=none;top=0;left=0;bottom=0;right=0;align=left;spacingLeft=6;fontStyle=1;strokeColor=#457B9D;fontColor=#1D3557;" parent="dL1xS_TsMoXlRhgqfjRp-254" vertex="1">
          <mxGeometry x="30" width="235" height="30" as="geometry" />
        </mxCell>
        <mxCell id="dL1xS_TsMoXlRhgqfjRp-257" value="" style="shape=partialRectangle;collapsible=0;dropTarget=0;pointerEvents=0;fillColor=none;points=[[0,0.5],[1,0.5]];portConstraint=eastwest;top=0;left=0;right=0;bottom=0;strokeColor=#457B9D;fontColor=#1D3557;" parent="dL1xS_TsMoXlRhgqfjRp-247" vertex="1">
          <mxGeometry y="120" width="265" height="30" as="geometry" />
        </mxCell>
        <mxCell id="dL1xS_TsMoXlRhgqfjRp-258" value="FK" style="shape=partialRectangle;overflow=hidden;connectable=0;fillColor=none;top=0;left=0;bottom=0;right=0;fontStyle=1;strokeColor=#457B9D;fontColor=#1D3557;" parent="dL1xS_TsMoXlRhgqfjRp-257" vertex="1">
          <mxGeometry width="30" height="30" as="geometry" />
        </mxCell>
        <mxCell id="dL1xS_TsMoXlRhgqfjRp-259" value="question_id" style="shape=partialRectangle;overflow=hidden;connectable=0;fillColor=none;top=0;left=0;bottom=0;right=0;align=left;spacingLeft=6;fontStyle=1;strokeColor=#457B9D;fontColor=#1D3557;" parent="dL1xS_TsMoXlRhgqfjRp-257" vertex="1">
          <mxGeometry x="30" width="235" height="30" as="geometry" />
        </mxCell>
        <mxCell id="dL1xS_TsMoXlRhgqfjRp-260" style="shape=partialRectangle;collapsible=0;dropTarget=0;pointerEvents=0;fillColor=none;points=[[0,0.5],[1,0.5]];portConstraint=eastwest;top=0;left=0;right=0;bottom=0;strokeColor=#457B9D;fontColor=#1D3557;" parent="dL1xS_TsMoXlRhgqfjRp-247" vertex="1">
          <mxGeometry y="150" width="265" height="30" as="geometry" />
        </mxCell>
        <mxCell id="dL1xS_TsMoXlRhgqfjRp-261" style="shape=partialRectangle;overflow=hidden;connectable=0;fillColor=none;top=0;left=0;bottom=0;right=0;fontStyle=1;strokeColor=#457B9D;fontColor=#1D3557;" parent="dL1xS_TsMoXlRhgqfjRp-260" vertex="1">
          <mxGeometry width="30" height="30" as="geometry" />
        </mxCell>
        <mxCell id="dL1xS_TsMoXlRhgqfjRp-262" value="date    DATE" style="shape=partialRectangle;overflow=hidden;connectable=0;fillColor=none;top=0;left=0;bottom=0;right=0;align=left;spacingLeft=6;fontStyle=1;strokeColor=#457B9D;fontColor=#1D3557;" parent="dL1xS_TsMoXlRhgqfjRp-260" vertex="1">
          <mxGeometry x="30" width="235" height="30" as="geometry" />
        </mxCell>
        <mxCell id="dL1xS_TsMoXlRhgqfjRp-272" style="shape=partialRectangle;collapsible=0;dropTarget=0;pointerEvents=0;fillColor=none;points=[[0,0.5],[1,0.5]];portConstraint=eastwest;top=0;left=0;right=0;bottom=0;strokeColor=#457B9D;fontColor=#1D3557;" parent="dL1xS_TsMoXlRhgqfjRp-247" vertex="1">
          <mxGeometry y="180" width="265" height="30" as="geometry" />
        </mxCell>
        <mxCell id="dL1xS_TsMoXlRhgqfjRp-273" style="shape=partialRectangle;overflow=hidden;connectable=0;fillColor=none;top=0;left=0;bottom=0;right=0;fontStyle=1;strokeColor=#457B9D;fontColor=#1D3557;" parent="dL1xS_TsMoXlRhgqfjRp-272" vertex="1">
          <mxGeometry width="30" height="30" as="geometry" />
        </mxCell>
        <mxCell id="dL1xS_TsMoXlRhgqfjRp-274" value="time    TIME" style="shape=partialRectangle;overflow=hidden;connectable=0;fillColor=none;top=0;left=0;bottom=0;right=0;align=left;spacingLeft=6;fontStyle=1;strokeColor=#457B9D;fontColor=#1D3557;" parent="dL1xS_TsMoXlRhgqfjRp-272" vertex="1">
          <mxGeometry x="30" width="235" height="30" as="geometry" />
        </mxCell>
        <mxCell id="dL1xS_TsMoXlRhgqfjRp-266" style="shape=partialRectangle;collapsible=0;dropTarget=0;pointerEvents=0;fillColor=none;points=[[0,0.5],[1,0.5]];portConstraint=eastwest;top=0;left=0;right=0;bottom=0;strokeColor=#457B9D;fontColor=#1D3557;" parent="dL1xS_TsMoXlRhgqfjRp-247" vertex="1">
          <mxGeometry y="210" width="265" height="30" as="geometry" />
        </mxCell>
        <mxCell id="dL1xS_TsMoXlRhgqfjRp-267" style="shape=partialRectangle;overflow=hidden;connectable=0;fillColor=none;top=0;left=0;bottom=0;right=0;fontStyle=1;strokeColor=#457B9D;fontColor=#1D3557;" parent="dL1xS_TsMoXlRhgqfjRp-266" vertex="1">
          <mxGeometry width="30" height="30" as="geometry" />
        </mxCell>
        <mxCell id="dL1xS_TsMoXlRhgqfjRp-268" value="edit_date   DATETIME" style="shape=partialRectangle;overflow=hidden;connectable=0;fillColor=none;top=0;left=0;bottom=0;right=0;align=left;spacingLeft=6;fontStyle=1;strokeColor=#457B9D;fontColor=#1D3557;" parent="dL1xS_TsMoXlRhgqfjRp-266" vertex="1">
          <mxGeometry x="30" width="235" height="30" as="geometry" />
        </mxCell>
        <mxCell id="dL1xS_TsMoXlRhgqfjRp-263" style="shape=partialRectangle;collapsible=0;dropTarget=0;pointerEvents=0;fillColor=none;points=[[0,0.5],[1,0.5]];portConstraint=eastwest;top=0;left=0;right=0;bottom=0;strokeColor=#457B9D;fontColor=#1D3557;" parent="dL1xS_TsMoXlRhgqfjRp-247" vertex="1">
          <mxGeometry y="240" width="265" height="30" as="geometry" />
        </mxCell>
        <mxCell id="dL1xS_TsMoXlRhgqfjRp-264" style="shape=partialRectangle;overflow=hidden;connectable=0;fillColor=none;top=0;left=0;bottom=0;right=0;fontStyle=1;strokeColor=#457B9D;fontColor=#1D3557;" parent="dL1xS_TsMoXlRhgqfjRp-263" vertex="1">
          <mxGeometry width="30" height="30" as="geometry" />
        </mxCell>
        <mxCell id="dL1xS_TsMoXlRhgqfjRp-265" value="text_field   VARCHAR" style="shape=partialRectangle;overflow=hidden;connectable=0;fillColor=none;top=0;left=0;bottom=0;right=0;align=left;spacingLeft=6;fontStyle=1;strokeColor=#457B9D;fontColor=#1D3557;" parent="dL1xS_TsMoXlRhgqfjRp-263" vertex="1">
          <mxGeometry x="30" width="235" height="30" as="geometry" />
        </mxCell>
        <mxCell id="dL1xS_TsMoXlRhgqfjRp-275" style="shape=partialRectangle;collapsible=0;dropTarget=0;pointerEvents=0;fillColor=none;points=[[0,0.5],[1,0.5]];portConstraint=eastwest;top=0;left=0;right=0;bottom=0;strokeColor=#457B9D;fontColor=#1D3557;" parent="dL1xS_TsMoXlRhgqfjRp-247" vertex="1">
          <mxGeometry y="270" width="265" height="30" as="geometry" />
        </mxCell>
        <mxCell id="dL1xS_TsMoXlRhgqfjRp-276" style="shape=partialRectangle;overflow=hidden;connectable=0;fillColor=none;top=0;left=0;bottom=0;right=0;fontStyle=1;strokeColor=#457B9D;fontColor=#1D3557;" parent="dL1xS_TsMoXlRhgqfjRp-275" vertex="1">
          <mxGeometry width="30" height="30" as="geometry" />
        </mxCell>
        <mxCell id="dL1xS_TsMoXlRhgqfjRp-277" value="" style="shape=partialRectangle;overflow=hidden;connectable=0;fillColor=none;top=0;left=0;bottom=0;right=0;align=left;spacingLeft=6;fontStyle=1;strokeColor=#457B9D;fontColor=#1D3557;" parent="dL1xS_TsMoXlRhgqfjRp-275" vertex="1">
          <mxGeometry x="30" width="235" height="30" as="geometry" />
        </mxCell>
        <mxCell id="dL1xS_TsMoXlRhgqfjRp-306" value="Vote" style="shape=table;startSize=30;container=1;collapsible=1;childLayout=tableLayout;fixedRows=1;rowLines=0;fontStyle=1;align=center;resizeLast=1;swimlaneFillColor=none;rounded=1;fillColor=#A8DADC;strokeColor=#457B9D;fontColor=#1D3557;" parent="1" vertex="1">
          <mxGeometry x="330" y="560" width="180" height="180" as="geometry" />
        </mxCell>
        <mxCell id="dL1xS_TsMoXlRhgqfjRp-307" value="" style="shape=partialRectangle;collapsible=0;dropTarget=0;pointerEvents=0;fillColor=none;points=[[0,0.5],[1,0.5]];portConstraint=eastwest;top=0;left=0;right=0;bottom=1;strokeColor=#457B9D;fontColor=#1D3557;" parent="dL1xS_TsMoXlRhgqfjRp-306" vertex="1">
          <mxGeometry y="30" width="180" height="30" as="geometry" />
        </mxCell>
        <mxCell id="dL1xS_TsMoXlRhgqfjRp-308" value="PK" style="shape=partialRectangle;overflow=hidden;connectable=0;fillColor=none;top=0;left=0;bottom=0;right=0;fontStyle=1;strokeColor=#457B9D;fontColor=#1D3557;" parent="dL1xS_TsMoXlRhgqfjRp-307" vertex="1">
          <mxGeometry width="30" height="30" as="geometry" />
        </mxCell>
        <mxCell id="dL1xS_TsMoXlRhgqfjRp-309" value="vote_id   int" style="shape=partialRectangle;overflow=hidden;connectable=0;fillColor=none;top=0;left=0;bottom=0;right=0;align=left;spacingLeft=6;fontStyle=5;strokeColor=#457B9D;fontColor=#1D3557;" parent="dL1xS_TsMoXlRhgqfjRp-307" vertex="1">
          <mxGeometry x="30" width="150" height="30" as="geometry" />
        </mxCell>
        <mxCell id="dL1xS_TsMoXlRhgqfjRp-310" value="" style="shape=partialRectangle;collapsible=0;dropTarget=0;pointerEvents=0;fillColor=none;points=[[0,0.5],[1,0.5]];portConstraint=eastwest;top=0;left=0;right=0;bottom=0;strokeColor=#457B9D;fontColor=#1D3557;" parent="dL1xS_TsMoXlRhgqfjRp-306" vertex="1">
          <mxGeometry y="60" width="180" height="30" as="geometry" />
        </mxCell>
        <mxCell id="dL1xS_TsMoXlRhgqfjRp-311" value="" style="shape=partialRectangle;overflow=hidden;connectable=0;fillColor=none;top=0;left=0;bottom=0;right=0;fontStyle=1;strokeColor=#457B9D;fontColor=#1D3557;" parent="dL1xS_TsMoXlRhgqfjRp-310" vertex="1">
          <mxGeometry width="30" height="30" as="geometry" />
        </mxCell>
        <mxCell id="dL1xS_TsMoXlRhgqfjRp-312" value="vote_status   int" style="shape=partialRectangle;overflow=hidden;connectable=0;fillColor=none;top=0;left=0;bottom=0;right=0;align=left;spacingLeft=6;fontStyle=1;strokeColor=#457B9D;fontColor=#1D3557;" parent="dL1xS_TsMoXlRhgqfjRp-310" vertex="1">
          <mxGeometry x="30" width="150" height="30" as="geometry" />
        </mxCell>
        <mxCell id="dL1xS_TsMoXlRhgqfjRp-313" value="" style="shape=partialRectangle;collapsible=0;dropTarget=0;pointerEvents=0;fillColor=none;points=[[0,0.5],[1,0.5]];portConstraint=eastwest;top=0;left=0;right=0;bottom=0;strokeColor=#457B9D;fontColor=#1D3557;" parent="dL1xS_TsMoXlRhgqfjRp-306" vertex="1">
          <mxGeometry y="90" width="180" height="30" as="geometry" />
        </mxCell>
        <mxCell id="dL1xS_TsMoXlRhgqfjRp-314" value="FK" style="shape=partialRectangle;overflow=hidden;connectable=0;fillColor=none;top=0;left=0;bottom=0;right=0;fontStyle=1;strokeColor=#457B9D;fontColor=#1D3557;" parent="dL1xS_TsMoXlRhgqfjRp-313" vertex="1">
          <mxGeometry width="30" height="30" as="geometry" />
        </mxCell>
        <mxCell id="dL1xS_TsMoXlRhgqfjRp-315" value="user_id" style="shape=partialRectangle;overflow=hidden;connectable=0;fillColor=none;top=0;left=0;bottom=0;right=0;align=left;spacingLeft=6;fontStyle=1;strokeColor=#457B9D;fontColor=#1D3557;" parent="dL1xS_TsMoXlRhgqfjRp-313" vertex="1">
          <mxGeometry x="30" width="150" height="30" as="geometry" />
        </mxCell>
        <mxCell id="dL1xS_TsMoXlRhgqfjRp-319" style="shape=partialRectangle;collapsible=0;dropTarget=0;pointerEvents=0;fillColor=none;points=[[0,0.5],[1,0.5]];portConstraint=eastwest;top=0;left=0;right=0;bottom=0;strokeColor=#457B9D;fontColor=#1D3557;" parent="dL1xS_TsMoXlRhgqfjRp-306" vertex="1">
          <mxGeometry y="120" width="180" height="30" as="geometry" />
        </mxCell>
        <mxCell id="dL1xS_TsMoXlRhgqfjRp-320" style="shape=partialRectangle;overflow=hidden;connectable=0;fillColor=none;top=0;left=0;bottom=0;right=0;fontStyle=1;strokeColor=#457B9D;fontColor=#1D3557;" parent="dL1xS_TsMoXlRhgqfjRp-319" vertex="1">
          <mxGeometry width="30" height="30" as="geometry" />
        </mxCell>
        <mxCell id="dL1xS_TsMoXlRhgqfjRp-321" value="vote_date   DATE" style="shape=partialRectangle;overflow=hidden;connectable=0;fillColor=none;top=0;left=0;bottom=0;right=0;align=left;spacingLeft=6;fontStyle=1;strokeColor=#457B9D;fontColor=#1D3557;" parent="dL1xS_TsMoXlRhgqfjRp-319" vertex="1">
          <mxGeometry x="30" width="150" height="30" as="geometry" />
        </mxCell>
        <mxCell id="dL1xS_TsMoXlRhgqfjRp-322" style="shape=partialRectangle;collapsible=0;dropTarget=0;pointerEvents=0;fillColor=none;points=[[0,0.5],[1,0.5]];portConstraint=eastwest;top=0;left=0;right=0;bottom=0;strokeColor=#457B9D;fontColor=#1D3557;" parent="dL1xS_TsMoXlRhgqfjRp-306" vertex="1">
          <mxGeometry y="150" width="180" height="30" as="geometry" />
        </mxCell>
        <mxCell id="dL1xS_TsMoXlRhgqfjRp-323" style="shape=partialRectangle;overflow=hidden;connectable=0;fillColor=none;top=0;left=0;bottom=0;right=0;fontStyle=1;strokeColor=#457B9D;fontColor=#1D3557;" parent="dL1xS_TsMoXlRhgqfjRp-322" vertex="1">
          <mxGeometry width="30" height="30" as="geometry" />
        </mxCell>
        <mxCell id="dL1xS_TsMoXlRhgqfjRp-324" value="vote_time    TIME" style="shape=partialRectangle;overflow=hidden;connectable=0;fillColor=none;top=0;left=0;bottom=0;right=0;align=left;spacingLeft=6;fontStyle=1;strokeColor=#457B9D;fontColor=#1D3557;" parent="dL1xS_TsMoXlRhgqfjRp-322" vertex="1">
          <mxGeometry x="30" width="150" height="30" as="geometry" />
        </mxCell>
        <mxCell id="dL1xS_TsMoXlRhgqfjRp-335" style="edgeStyle=elbowEdgeStyle;rounded=1;orthogonalLoop=1;jettySize=auto;html=1;entryX=0.194;entryY=0.003;entryDx=0;entryDy=0;startArrow=ERmandOne;startFill=0;startSize=10;endArrow=ERzeroToMany;endFill=1;endSize=10;fontColor=#1D3557;elbow=vertical;fillColor=#a20025;strokeColor=#6F0000;labelBackgroundColor=#F1FAEE;entryPerimeter=0;" parent="1" target="dL1xS_TsMoXlRhgqfjRp-306" edge="1">
          <mxGeometry relative="1" as="geometry">
            <Array as="points">
              <mxPoint x="190" y="530" />
              <mxPoint x="190" y="540" />
            </Array>
            <mxPoint x="10" y="500" as="sourcePoint" />
            <mxPoint x="-60" y="605" as="targetPoint" />
          </mxGeometry>
        </mxCell>
        <mxCell id="dL1xS_TsMoXlRhgqfjRp-337" style="edgeStyle=orthogonalEdgeStyle;rounded=1;orthogonalLoop=1;jettySize=auto;html=1;exitX=1.005;exitY=0.767;exitDx=0;exitDy=0;entryX=0;entryY=0.5;entryDx=0;entryDy=0;startArrow=ERmandOne;startFill=0;startSize=10;endArrow=ERzeroToMany;endFill=1;endSize=10;fontColor=#1D3557;fillColor=#a20025;strokeColor=#6F0000;labelBackgroundColor=#F1FAEE;exitPerimeter=0;" parent="1" source="dL1xS_TsMoXlRhgqfjRp-210" edge="1">
          <mxGeometry relative="1" as="geometry">
            <mxPoint x="340" y="430" as="sourcePoint" />
            <mxPoint x="400" y="560" as="targetPoint" />
          </mxGeometry>
        </mxCell>
        <mxCell id="dL1xS_TsMoXlRhgqfjRp-382" style="edgeStyle=orthogonalEdgeStyle;rounded=1;orthogonalLoop=1;jettySize=auto;html=1;startArrow=ERmandOne;startFill=0;startSize=10;endArrow=ERzeroToMany;endFill=1;endSize=10;fontColor=#1D3557;fillColor=#a20025;strokeColor=#6F0000;labelBackgroundColor=#F1FAEE;exitX=0.84;exitY=0;exitDx=0;exitDy=0;exitPerimeter=0;" parent="1" source="dL1xS_TsMoXlRhgqfjRp-141" edge="1">
          <mxGeometry relative="1" as="geometry">
            <mxPoint y="80" as="sourcePoint" />
            <mxPoint x="260" y="-60" as="targetPoint" />
            <Array as="points">
              <mxPoint y="-60" />
            </Array>
          </mxGeometry>
        </mxCell>
      </root>
    </mxGraphModel>
  </diagram>
</mxfile>
